# xmcd
#
# Track frame offsets: 
#        150
#        10624
#        29295
#        38310
#        52676
#        73211
#        86775
#        101289
#        115130
#        126808
#        142046
#        159971
#        177243
#        191925
#        203379
#        206721
#        218714
#        236237
#        247275
#        265541
#        285533
#        301774
#        322586
#        338070
#
# Disc length: 4646 seconds
#
# Revision: 0
# Processed by: cddbd v1.5.2PL0 Copyright (c) Steve Scherf et al.
# Submitted via: ExactAudioCopy v0.99pb4
#
DISCID=45122418
DTITLE=Elvis Presley - Elvis Country FTD Disc 1
DYEAR=1900
DGENRE=
TTITLE0=Snowbird
TTITLE1=Tomorrow Never Comes
TTITLE2=Little Cabin On The Hill
TTITLE3=Whole Lotta Shakin' Goin' On
TTITLE4=Funny How Time Slips Away
TTITLE5=I Really Don't Want To Know
TTITLE6=There Goes My Everything
TTITLE7=It's Your Baby, You Rock It
TTITLE8=The Fool
TTITLE9=Faded Love
TTITLE10=I Washed My Hands In Muddy Water
TTITLE11=Make The World Go Away
TTITLE12=I Was Born About 10,000 Years Ago
TTITLE13=Where Did They Go Lord
TTITLE14=Faded Love - Country Version
TTITLE15=The Fool - Take 1
TTITLE16=A Hundred Years From Now - Takes 1 and 2
TTITLE17=Little Cabin On The Hill - Take 1
TTITLE18=It's Your Baby, You Rock It - Alternate Master
TTITLE19=Faded Love - Take 3
TTITLE20=Tomorrow Never Comes - Take 1
TTITLE21=Tomorrow Never Comes - Take 2
TTITLE22=Snowbird - Rehearsal and Take 1
TTITLE23=Where Did They Go Lord - Take 1
EXTD=
EXTT0=
EXTT1=
EXTT2=
EXTT3=
EXTT4=
EXTT5=
EXTT6=
EXTT7=
EXTT8=
EXTT9=
EXTT10=
EXTT11=
EXTT12=
EXTT13=
EXTT14=
EXTT15=
EXTT16=
EXTT17=
EXTT18=
EXTT19=
EXTT20=
EXTT21=
EXTT22=
EXTT23=
PLAYORDER=
